
<svg xmlns="http://www.w3.org/2000/svg" id="svg3" viewBox="0 0 744 1052" height="297" width="210"><defs id="defs4"/><metadata id="metadata7"/><g id="layer1"><path id="path3347" d="m209 731c55 0 145 0 200 0 55 0 10 0-100 0-110 0-155 0-100 0zm6-30c-2-1-2-2-1-3 1-2 1-2-2-1-2 0-4 0-5-1-2-1-3-1-3 0-3 3-7 0-4-4 2-3-3-8-5-5-1 1-4 0-4-2 0-3 4-8 7-9 3-1 3-1 2-3-1-3 3-8 5-8 1 0 4-1 6-2 6-3 14-4 21-3 6 1 7 1 16-8 8-8 11-14 10-21 0-4 0-7 1-9 2-3 1-7-1-7-1 0-2 0-3 0-1 0-2-1-2-4 0-3-1-4-2-4-2 0-2-1-2-3 0-2 0-3-1-3-1 0-1-1-1-3 0-2-1-3-1-3-1 0-2-2-2-4 0-2-1-4-2-4-1 0-1-1-1-2 0-1-1-2-1-2-1 0-1-2-1-3 0-2-1-3-2-3-2-1-3-3-1-6 1-1 1-2 0-2-3 0-5-3-4-6 1-2 1-3-1-5-1-1-2-3-2-5 0-2-1-4-1-5-1-1-1-2-1-3 0-1 0-2-1-2 0 0-2-3-4-6-2-4-4-6-5-6-1 0-3-1-5-3-5-4-10-8-10-7 0 0 1 4 3 7 6 13 3 17-3 4-3-6-5-9-6-9-2 0-2 1 1 5 7 14 12 34 8 34-2 0-2 0-4-10-3-13-9-26-14-31-4-3-6-3-3 0 6 8 12 37 8 37-1 0-2-3-3-8-2-13-8-28-12-32-2-2-2-2-1 1 3 12 0 15-4 4-2-6-4-8-3-2 2 7 1 22-1 22-2 0-2-1-2-7 0-4 0-10-1-13-1-3-1-5-1-6 0 0-1 0-3-1-2 0-3 0-3 0 1 1-2 8-3 8-1 0-1-1-1-5 1-4 0-5-2-8-4-4-3-11 1-10 1 0 2 0 2-1 0-1 1-2 3-2 2 0 3 0 2-1-3-1-5-7-3-9 4-2 2-5-4-4-5 1-6 0-6-1 0-1-1-1-2-1-1 0-3-1-4-1-5-3-8 2-4 6 3 3 7 5 9 4 4-2 6 0 3 4-1 1 0 1 1 0 2-2 5-2 5 0 0 1-1 2-3 3-3 2-7 2-6-1 1-1 0-1-1 0-1 1-1 2 0 4 3 8-7 2-13-8-5-7-5-11 0-14 3-2 3-2 1-3-4-2-5-6-2-6 2 0 6 4 5 5 0 1 1 0 3-1 4-3 4-3 0-14-3-7-3-9-2-10 1-1 4 2 4 5 0 1 0 2 1 2 2 1 4 12 2 13-1 1-1 1 0 1 2 0 7-5 7-7 0-1 0-1 0 0 1 2 11-4 13-9 2-3 2-4 9-9 3-2 3-3 4-6 0-6 3-13 4-13 2 0 3 4 1 9-2 7-1 7 2 0 5-9 13-19 17-21 7-3 10-4 11-3 1 0 2-1 2-5 1-10 3-13 9-13 4 0 6 2 7 6 1 3 2 4 2 3 2-2 22-1 22 1 1 1 2 2 6 2 3 0 6 1 6 1 0 1 2 1 3 1 2 0 3 1 4 2 0 1 2 2 4 2 3 0 4 1 5 2 1 2 2 2 4 2 2 0 2 0 2 1 0 1 1 1 2 1 1 0 2 0 3 0 0 1 2 1 5 0 4-1 4 0 4 2 0 1 0 2 1 2 2-1 5 2 5 5 0 2 0 2 6 2 4 0 6 0 6 1 0 1 0 2 0 3 0 1 1 1 3 1 3 0 5 3 3 4-2 1 1 5 4 5 3 0 4 3 1 4-2 1-2 1 2 1 3 0 4 1 4 3 0 1 0 3 1 4 0 1 0 2 0 3 0 1 0 2 2 2 2 0 2 1 2 2 0 2 0 3 1 4 1 1 1 2 0 3 0 1 0 2 0 2 1 0 1 1 1 2 0 2 4 4 12 3 8 0 11-1 18-6 4-3 8-5 10-6 4-2 11-9 16-16 2-3 4-5 5-5 2 0 2 2 1 4-1 1 0 0 2-1 2-2 4-5 6-7 2-3 3-4 5-4 2 0 4-1 9-7 6-6 10-8 9-4 0 1 0 1 2 0 1-1 4-2 7-3 3-1 6-2 9-5 4-4 7-5 8-3 0 1 1 1 3 0 3-2 5-2 6-1 0 1 3 0 6-2 7-4 9-4 8-1l-1 2 2-2c4-4 7-4 7 0 0 0 2 0 4-1 3-1 6-2 9-2l5 0 0 13c0 11 0 13-2 14-4 2-8 0-5-3 2-2-14 4-20 8-5 3-9 3-7 0 0-1-1 0-2 1-2 2-3 2-5 2-1 0-3 0-3 0-1 2-5 1-5-1 0-1 0-1-2 1-1 1-3 2-4 2-1 0-1 0-1 1 0 1-1 3-4 5-2 2-5 4-6 5-1 2-5 2-5 1 0-1 1-2 2-3 4-5-2 0-11 9-6 6-15 13-19 16-10 7-11 8-6 7 2 0 3 0 2 1 0 1-1 1-2 1-1 0-1 0 0 1 1 1 1 1 2 0 2-2 4-2 4 0 0 1 1 2 4 2 8 0 2 5-6 5-5 0-8 2-7 4 0 1 0 2-1 2-1 0-1 0-1 1 1 2 2 1 3-1 1-2 12-6 14-4 2 2 0 4-2 4-3 0-7 2-7 4 0 1-2 2-4 2-9 1-9 1-4 1 8 0 13 4 6 4-1 0-3 0-3 1 0 1-2 1-3 1-1 0-1 0 1 1 3 1 6 5 3 5-1 0-1 0 0 1 0 1 2 1 5 0 3 0 5 0 5 0 1 2-1 4-6 5-3 0-4 1-4 2 0 1-1 1-6 1-3 0-6 0-7 1 0 1 0 1 1 0 1-1 1 0 1 1 0 1 0 2 0 2 0 0 1 0 1-1 0-2 1-2 5-2 3 0 6 0 8-1 3-1 3 0 3 1 0 3-4 4-9 4-3 0-5 0-5 2 0 1-1 1-3 1-2 0-3 0-3 1-1 2 0 3 4 3 2 0 4 1 5 2 1 2 2 2 7 2 4 0 6 0 6 2 0 2-15 2-16 1 0-1-3-1-5-2-3 0-4 0-3 0 1 0 3 1 6 2 9 3 1 6-9 3-5-2-4 1 2 3 4 1 7 2 8 2 2 0 5 0 8 1 7 2 16 5 16 4 0 0-5-2-9-3-3-1-3-4 0-4 2 0 3 0 3-2 0-2 1-2 4-2 2 0 4 0 3-1-1 0-1-1-1-2 0-1 0-1-1-1-1 0-1-1-1-2 0-2 5-4 10-3 4 1 11-3 11-6 0-1 11-4 14-4 4 0 3 3 0 4-3 1-4 5-1 5 1 0 2-1 2-1 0-3 14-3 15 1 0 1 0 2-3 2-2 0-3 0-3 1 0 1 0 2 0 2 0 0-1 1 0 3 1 2 0 2-7 2-9 0-12 1-4 3 9 1 16 4 16 6 0 2 1 2 6 2 2 0 5 2 16 10 1 1-1-1-5-5-4-4-9-7-11-8-3-1-4-2-4-4 0-2 2-2 5-1 2 1 2 1 2-1 0-1 1-2 3-1 2 0 2 0 1-1-2-3 1-4 4-1 5 3 14 7 15 7 1 0 0-1-2-2-4-2-10-6-10-7 0-2 4-1 9 2 3 2 7 3 9 3 3 0 4 5 1 5-2 0-1 1 1 2 2 1 2 1 2-3 0-3 0-4 2-4 1 0 2 1 2 6 0 4 0 6-1 6-1 0-1 0 0 1 2 1 1 14 0 15-1 1-1 1 0 1 1 0 1 2 1 5 0 4 0 5-2 5-1 0-3 1-4 2-1 1-2 2-4 2-2 0-3 1-3 2 0 1-2 2-4 2-2 0-3 0-3 1 0 1-1 1-4 1-2 0-5 0-6 1-1 0-3 1-5 0-2 0-3 0-3 0 0 1-1 1-2 1-1 0-2 1-2 2 0 1-1 2-2 2-1 0-4 1-5 2-2 1-4 2-5 2-1 0-3 1-5 2-2 2-4 2-8 2-3 0-5 0-5 1 0 1-3 1-6 1-3 0-6 1-7 2-1 1-3 2-5 2-5 0-8 4-7 8 0 3 0 5-1 7-1 2-2 4-2 5 0 1-1 3-2 4-1 1-3 5-4 8-3 6-10 12-15 13-2 0-3 1-3 1 0 2-3 2-5 1-3-2-6-1-9 3l-2 2 6 0c12-1 5 5-9 7-3 0-3 1-2 2 2 3 1 3-7 4-4 0-9 1-12 2-5 1-5 1-7-1-5-5-2-8 7-8 2 0 3 0 2 2 0 1 0 2 1 2 1 0 2-1 2-2 0-1 1-2 2-2 1 0 1-1 1-1 0-1-1-2-1-3 0-1-1-1-4-1-2 0-4 0-5-1-2-2-2-2-3 0-2 3-7 2-6-1 0-2 0-3-2-3-3 0-2-5 1-8l3-3-3 1c-1 1-4 3-6 5-4 5-10 8-13 7-1 0-2 0-2 1 0 1-1 1-2 1-1 0-4 2-7 4-3 2-5 3-5 3-1 0-11 8-11 9 0 0 2 0 5-1 3-1 6-1 7-1 1 0 3 0 3 0 0 0-2-1-3-1-2 0-3 0-3-1 0-3 26-5 27-2 2 4 1 7-2 7-1 0-4 1-6 2-10 4-14 5-15 4-1-2-3-1-6 1-3 3-9 3-10 0 0-1 0-2 0-2 2 1 3-2 2-4-1-1-1-1-1 0 0 1-1 2-2 2-2 0-2 0-1-2 1-2 0-2-3 1-2 2-5 3-7 4-2 0-5 1-6 2-2 1-6 2-9 3-3 1-8 3-12 4-7 3-12 4-15 2-2-1-2-1-3 1-2 2-3 3-6 1zm21-8c0-2 0-2-2-1-4 1-6 3-3 3 3 1 5 0 5-2zm7-2c0-1 2-1 5-1 5 0 8-1 8-4 0-1 1-2 3-3 2-1 3-2 3-2 0-1-1-1-4 1-3 2-7 3-7 1 0-1-1 1-3 3-2 2-4 3-5 3-3 0-6 1-3 2 3 1 3 1 4 0zm-7-4c1-1 2-2 1-2 0 0-1 1-2 2-1 1-2 2-1 2 0 0 1-1 2-2zm-2-1c1-1 2-2 1-2 0 0-1 1-2 2-1 1-2 2-1 2 0 0 1-1 2-2zm-26-2c0-1-1-1-2-1-1 0-2 0 0 1 2 1 2 1 2 0zm13-4c2-1 3-1 3-1 0 1 2 0 5-1l4-2-3-1c-3-1-11 2-12 4-1 2 0 1 3-1zm68 1c0-1 0-1 0-1-1 0-1 0-2 1 0 1 0 1 0 1 1 0 1 0 2-1zm17-2c-1-1-3 1-3 2 0 1 1 1 2 0 1-1 2-1 2-2zm-70-4c0 0-1 0-2 0-1 0-1 1 1 1 1 0 2 0 1-1zm63 0c0 0-1 0-2 0-1 0-1 1 1 1 1 0 2 0 1-1zm-84-4c1-1-2 0-3 1-2 1-2 1 1 0 1-1 3-1 3-2zm6 0c0-1 0-1 0-1-1 0-1 0-1 1 0 1 0 1 0 1 0 0 1 0 1-1zm58-4c0-1 2-2 3-3l2-1-2 0c-3 0-4-3-4-8l0-4 0 3c0 2 0 5 1 7 1 3 1 4-1 6-2 2-2 2 0 1 1 0 2-1 2-2zm7 0c0-1-1-1-1 1 0 1 0 2 1 1 0 0 0-1 0-2zm-42-3c0-1 0-3 1-4 1-2 0-2-1 0-2 2-2 6-1 6 1 0 1-1 1-2zm9 1c0-1 0-1-1-1-1 0-1 0-1 1 0 1 0 1 1 1 1 0 1 0 1-1zm104 1c0 0-1-1-2-2-2-1-2-1-2 0 0 1 1 2 2 2 1 0 2 0 2 0zm-101-5c-1 0-1-1-1-2 0-1 0-1-1-1-1 1 0 4 2 4 1 0 1 0 0-1zm15-1c0-1 0-1 0-1 0 0-1 0-1 1 0 1 0 1 0 1 1 0 1 0 1-1zm76 0c1 0 2 0 2-1 0 0-2-1-4 0-2 0-4 1-3 1 0 1 1 1 2 0 1 0 2-1 3-1zm17 0c1-1 1-1 0-1-1 0-2 0-2 1-1 1 1 1 3 0zm-53-3c0-1-2-2-2-1 0 1 1 3 2 3 0 0 1-1 0-2zm-4-2c-2-1-6-1-6 0 0 1 1 1 4 1 3 0 4-1 3-1zm64-1c1 0 2 0 2-1 0-1 1-1 3-2 3-1 3-3 1-3-2 0-7 4-9 7-1 1-1 1 0 0 1-1 2-1 3-1zm-118-1c1-1 2-2 4-2 2 0 3 0 4-2 1-3 2-9 1-9 0 0-1 1-1 2 0 1-2 4-5 7-3 3-5 6-4 6 0 0 1-1 2-2zm64-2c-1-4-1-4-1 1 0 2 0 3 1 3 0 0 1-2 0-4zm37 2c0-1-2-1-2 0 0 1 0 1 1 1 1 0 1-1 1-1zm-60-5c0-1-1 0-1 1 0 1 0 2 1 1 0-1 0-2 0-2zm-17-4c1-3 1-3-1-2-1 1-2 2-2 4 0 3 1 3 2-2zm10 2c0-1 0-2-1-2 0 0-1 1 0 3 0 1 1 3 1 3 0 0 0-1 0-2zm9 0c0-1-1-1-1 1 0 1 0 2 1 1 0 0 0-1 0-2zm57-1c0-1 0-2-1-2-1 0-1 0-1 0 0 1-1 2-2 2-2 1-2 1 0 1 1 0 2-1 3-2zm-5-3c0 0-1 0-2 1-1 1-2 2-2 3 0 1 1 1 2-1 1-1 2-2 2-3zm34 2c1-2 1-2 0-2-1 0-2 1-2 3 0 3 0 3 2 0zm-81 0c1 0 1 0 1-1 0-2 1-2 5-2 3 0 5 0 5-1 0-1 1-1 2-1 1 0 2 1 2 3 0 1 0 2 1 2 1 0 1-2 1-3 0-2 0-3 1-3 1 0 1-1 1-3 0-2 3-3 3 0 0 1 0 1 1 1 1-2-2-5-4-5-1 0-2-1-2-2 0-2 0-2-1 0-1 3-5 1-5-3 0-1 0-2-1-1 0 1-1 2-2 3-1 1-1 2 0 4 1 2 1 2 1 0 0-3 1-5 3-2 2 3 2 7 0 6-1 0-2 0-2 2 0 2-1 2-3 2-1 0-2 0-1 0 1 1-3 3-6 3-1 0-1-6 0-6 1 0 1-1 0-1-1 0-2 1-3 3-1 2-1 3-1 3 2-1 2 3 0 5-2 2-2 2 0 1 1-1 2-1 3-1zm89-3c0-1 0-2 0-2 0 0-1 0-1 1 0 1-1 1-1 1-1 0-1 0-1 1 0 2 3 2 3-1zm-47-3c0-1-1-1-2-1-1 0-3 1-3 1 0 1 4 1 5-1zm29 1c1 0 1-1 1-3l0-3-3 3c-3 4-4 5-1 4 1 0 2-1 3-1zm27-2c0-1-1 0-1 1 0 2 0 2 0 1 1-1 1-2 1-2zm-136 0c0-1-1-1-1 1 0 1 0 2 1 1 0 0 0-1 0-2zm32-1c1-4-1-5-3-1-2 3-2 3 0 3 1 0 2-1 2-2zm-23-1c0-1 0-1 0-1 0 0-1 0-1 1 0 2 0 2 1 1zm-5-2c1-1 1-2-1-1-1 0-2 1-2 2-1 2 1 2 3 0zm96-6c7-1 7-1 6-3-1-3-9-2-9 1 0 1-1 2-3 4-2 1-2 2-1 1 1-1 4-2 8-2zm14-3c0-3 0-4-2-4-1 0-2-1-1-3 0-6 0-7-2-5-1 1-2 2-3 2-1 0-1 1-2 2 0 1 0 2 1 2 1 0 2 1 3 3 1 2 2 3 3 3 1 0 1 1 1 2 0 1 0 2 1 2 0 0 1-2 1-4zm-44 0c0-1-1 0-1 1 0 1 0 2 1 1 0-1 0-2 0-2zm12 1c0-1-1-1-1 1 0 1 0 2 1 1 0 0 0-1 0-2zm-65-3 3-3-3 3c-2 2-3 3-3 4 0 1 0 1 0 1 0 0 2-2 3-4zm5 2c1-2 1-2 0 0-1 1-2 2-2 2 0 1 1 0 2-1zm8 0c1-2 1-2 0 0-1 1-2 2-2 2 0 1 1 0 2-1zm46-2c0-1-1-1-1 1 0 1 0 2 1 1 0 0 0-1 0-2zm-33 0c0-1 0-1-1-1-1 0-1 0 0 1 0 1 1 1 1 1 0 0 0 0 0-1zm82-2c0-2 0-2-1-1-2 1-1 2 1 3 0 0 0-1 1-2zm-84-1c0 0 0-1-1-1-1 0-1 0-1 0 0 1 0 1 1 1 1 0 1 0 1 0zm51-3c0-1-2-1-3-1-2 0-2 0-1 1 1 0 2 1 3 1 1 1 2 1 1-1zm-58 0c0-1 0-1-2-1-1 0-3 0-3 1 0 1 1 1 2 1 1 0 2 0 3-1zm21-14c1 0 1 1 1 3 0 2 1 3 2 3 1 0 2 0 2-1 0-1 3-1 3 0 0 1 1 0 1-1 0-2 2-3 5-2 0 0 1-1 2-1 1-1 2-1 2-1 1 0 1-1 1-3 0-2 0-3 1-2 2 0 2 0 2-2 0-2 0-2 2-2 1 0 2 0 3 0 0-1 2-1 3 0 3 1 5-6 4-13 0-2 2-3 4-2 3 3 5 3 3 1-2-3-6-7-6-6 1 2-3 2-4 0-1-1-1-3-1-6 0-3 0-5 0-5-1 0-1 0-1 2 0 4-3 2-6-3-4-7-2-13 2-7 1 2 3 2 5 0 2-2 0-6-2-5-1 0-3 0-4-1-2-2-2-2 0 0 2 3 2 3 0 3-2 0-5-3-5-5 0-2 4-6 5-4 1 1 4-1 4-3 0-2 3-2 5 0 1 1 2 1 2 1 1 0 0-1-1-2-4-3-3-7 2-4 1 1 3 1 4 0 2-1 2-1 0-1-2 0-6-3-6-5 0-2 2-2 6 0 4 1 4 1 2 0-1-1-2-2-3-2-2 0-4-2-4-4 0-1 1-1 2-1 3 0 5 2 4 3 0 0 0 0 1 0 1 0 3 0 5 2 2 2 4 3 5 3 1 0 0-1-1-2-5-4-6-5-6-7 1-2 1-2 4 0 3 2 5 2 9 2 3 0 5 0 3-1-2 0-3-1-3-2 0-2-1-2-2 0-1 2-9 0-10-2-1-3 1-3 5-2 4 2 4 2 6 0 2-2 2-2-2-1-5 1-7 0-6-3 0-2 0-2-2-1-2 0-2 0-2-1 0-2 7-5 14-6 3 0 5-1 5-2 1-2-4-1-11 2-8 4-10 4-10 2 0-2 11-8 14-8 1 0 2-1 2-1 1-3-6 0-14 5-4 2-7 3-7 1 0-1 2-2 4-3 2-1 4-3 5-3 0-1 0 0-2 1-4 3-5-1-1-5 5-4 3-4-2 0-4 4-8 4-7 1 0-1 0-2 0-1 0 0-1 1-1 2 0 1-1 1-2 1-2 0-2 0 0 2 2 2 2 4 0 4-1 0 0 0 1 1 3 2 2 4-1 4-2 0-3 1-1 4 1 2 0 4-2 4-1 0-1 0-1 0 2 3-1 4-6 2l-4-2 3 3c3 3 4 6 1 6-1 0-4-2-6-5l-5-5 4 5c7 7 4 10-3 3l-4-4 4 4c4 4 5 7 2 7-1 0-3-2-6-5-2-3-4-4-3-2 1 1 3 4 5 6 4 4 4 7 1 7-1 0-2 1-1 2 1 3-3 3-6 0-2-3-4-3-4-1 0 1 1 1 1 1 2 0 5 5 5 8 0 1-1 2-1 2-1 0-1 0-1-1 0 0-2-3-4-5-5-6-9-12-7-14 1-1 2-1 3 1 3 4 3 0 0-4-1-2-2-4-2-6 0-2 0-4-1-5-1-4 2-3 7 1 3 3 3 3-1-1-5-6-7-12-2-7 1 1 1 0 0-2-1-2-1-4-1-6 0-2 0-3-2-5-2-2-2-3-1-5 0-2 0-3 0-3-1 0-1-1-1-2 0-1-1-2-1-2-1 0-1-1-1-2 0-1-1-2-1-2-1 0-1-1-1-2 0-1 0-1-1-1-1 0-1 0-2-1 0-2-1-2-6-1-8 1-9 1-9-1 0-1-1-1-1-1-1 0-1-1-1-2 0-2 1-2 4-2 2 0 4 0 4 1 0 1 2 1 4 1 2 0 3 0 2 0-1 0-2-1-2-2 0-1-1-1-3-1-6 1-12-1-12-3 0-2 7-4 7-2 0 1 1 1 3 1 2 0 2 0 1-1-2-1-2-2 0-4 1-1 1-1 0 0-2 1-9 2-11 1-2-1 0-10 4-13l3-3-5 3c-3 2-5 4-6 5-2 2-5 2-5 0 1-2-6-4-10-3-2 1 0 3 3 3 3 0 9 6 12 13 2 5 2 7-1 7-2 0-5-6-4-7 1-1-7-8-9-9-1 0-2-1-2-1 0 0-2-1-5-2-5-2-8 0-5 2 1 1 2 2 2 3 0 1 2 1 4 2 2 0 5 1 5 2 1 1 2 2 3 2 3 0 7 14 6 20 0 2 0 4 0 6 0 1 1 4 0 7 0 4 0 4 1 3 2-2 4-18 3-20-2-5 0-7 4-3 2 2 2 3 2 5 0 2 1 4 4 4 1 0 2 1 2 2 0 1 1 2 2 2 2 0 6 4 6 6 0 1-1 1-1 1-1 0 0 1 1 2 2 2 2 4 1 4 0 0 0 2 0 4 2 5 2 6-1 6l-2 0 2 2c3 3 3 5 0 5l-3 0 2 2c3 3 2 8-1 6-3-2-5-1-3 1 2 4 2 6-1 5-2 0-2 0-2 1 0 2-2 2-4 1-1-1-1-1-1 1 0 3-5 4-8 3-1-1-2 0-2 1 0 1-1 1-3 1-1 0-2 0-2 1 0 1 0 1 1 1 3 0 4 9 1 15-1 3-2 4-1 3 3-4 6 3 4 9-1 1 0 2 1 2 2 0 2 1-1 10-1 3-2 7-2 9 0 3 0 3 1 0 3-10 8-14 6-6 0 2 0 3 1 3 1 0 1-1 1-4 0-5 3-14 5-14 1 0 2 1 2 1 0 2 5 2 7 1 2-3 3 0 4 7l0 7 0-7c0-5 1-7 2-7 1 0 2-1 2-3 0-4 4-5 4-1l0 3 1-3c2-7 5-3 5 6 0 2 0 4 1 4 1 0 1 5 0 7-1 2-1 2 1 2 1 0 2 1 1 2 0 2-2 10-3 14-1 3-3 1-4-2 0-3-1-4-3-5-2-1-2-2-2-4 0-2 0-3-1-3-1 0-2-1-2-1 0-1-1 1-1 3 0 5-4 7-4 2 0-2 0-2-1 0-1 4-4 4-5 0 0-2-1-3-2-3-1 0-2-1-2-1 0-1-1-1-1 0 0 1-1 3-3 5-3 3-3 3 0 3 2 0 2 0 3 1 0 1 2 1 4 1 3 0 4 0 4 1 0 1 1 1 2 0 3-3 6 0 2 4-2 2-2 2 0 2 1 0 2 0 2 1 0 1 1 1 2 1 1 0 2 1 2 1 0 1 1 2 2 2 2 0 2 1 1 2-1 2 0 2 2 1 2 0 3-1 3-3 0-5 3-3 3 2 0 5 0 5 1-1 0-12 4-8 4 5l0 10 0-8c0-6 1-8 2-8zm23-29c-1-2-2-3-3-2-1 1-4-1-4-3 0-1 0-1-1 0 0 1-1 1-2 1-1 0-1 0 0 2 0 2 0 3-1 2-2 0-3-4-2-5 1 0 1-2 0-5-1-4-1-4-1-1 0 2-1 3-2 3-1 0-1 1-1 2 0 1-1 2-1 2-3 0-5-8-2-10 1-1 2-3 2-5 0-6 3-5 4 1l1 4 0-4c0-3 1-4 2-4 2 0 2 0 3 8l1 6 0-6c-1-11 4-9 5 3 0 4 1 5 2 4 2-1 6 6 6 9 0 2-3 1-5-2zm-16-15c0-1-1-1-1 1 0 1 0 2 1 1 0 0 0-1 0-2zm-13 4c0-2 0-3 1-3 2 0 3 2 2 5-1 4-4 3-4-1zm-2-9c-1-2 0-4 2-4 1 0 1 1 1 3 0 3-3 4-4 1zm6-6c-1-3-1-5 1-5 1 0 4 4 4 7 0 3-4 2-5-1zm-8-1c0-3 3-3 4 0 0 2 0 2-2 2-2 0-2-1-2-3zm4-6c-2-3-1-6 0-6 2 0 4 5 4 7-1 2-3 1-4-1zm43-24c-1-3 1-4 4-3 3 1 2 3-1 4-1 0-2 0-3-1zm-64-42c-1-2 1-3 5-4 4 0 6 3 2 4-1 0-3 1-4 1-1 0-2 0-2-1zm100 142c0-1 0-1-1-1-1 0-1 1-1 2 0 1 0 2 1 2 1 0 1-1 1-1zm-117 0c0 0 0-1-1-1-1 0-1 0-1 1 0 0 1 1 1 1 0 0 1 0 1-1zm39 0c0-1 0-1 0-1 0 0-1 0-1 1 0 1 0 1 0 1 1 0 1 0 1-1zm2-2c0-1-1 0-1 1 0 1 0 2 1 1 0-1 0-2 0-2zm-25 2c-1 0-1-1-1-2 0-1-1-1-3-1-2 0-3 0-3 1 0 0 1 1 3 1 1 0 3 0 3 1 0 1 1 1 2 1 1 0 1 0 1-1zm95-1c2-1 2-1-1-1-1 0-3 1-3 2-1 2 1 2 4 0zm18-2c0-1 0-1-1-1-1 0-1 0-1 1 0 1 0 1 1 1 1 0 1 0 1-1zm7-1c0-1 1-2 2-2 1 0 0-1-1-1-1 0-2 1-2 1 0 1 0 2-1 2-1 0-1 0-1 1 0 2 2 1 3-1zm-128-5c0-1 0-1 0-1 1 1 3 2 3 0 0-1 0-1-1-2-1 0-1-2-1-3 0-1 0-2 0-2-1 0-5 8-4 9 0 0 1 1 0 2-1 1 0 1 1 0 1-1 1-2 1-3zm17 2c0 0-1 0-1 1-1 1 0 2 1 1 1-1 1-1 1-2zm21 0c0-1-1-1-1 1 0 1 0 2 1 1 0 0 0-1 0-2zm49 0c0 0 0-1-1-1-1 0-1 0-1 0 0 1 0 1 1 1 1 0 1 0 1 0zm-15-1c0 0 0-1-1-1-1 0-1 0-1 1 0 0 1 1 1 1 0 0 1 0 1-1zm61-3c0-2 0-2-3-2-3 0-3 0-1 1 2 0 2 1 2 3 0 1 0 2 1 2 0 0 1-2 1-3zm-150-1c0-1-1 0-1 1 0 1 0 2 1 1 0-1 0-2 0-2zm97 1c0-3-3-4-3 0 0 2 1 3 2 3 1 0 1-1 1-2zm21-8 0-5-1 4c-1 2-1 4-2 5-1 1-1 2 1 1 2 0 2-1 2-5zm-29 2c-1-1-1-2-2-1 0 1 0 2 1 3 2 2 2 2 1-1zm67 1c1-2 1-2 0 0-2 1-2 2-1 2 0 0 1-1 2-2zm-157-1c0-1-1-1-1 1 0 1 0 2 1 1 0 0 0-1 0-2zm5-1c0-1-1 0-1 1 0 1 0 2 1 1 0-1 0-2 0-2zm169 2c0 0-1 0-2 0-1 0-1 1 1 1 1 0 2 0 1-1zm-178-3c0-1-1-1-1 1 0 1 0 2 1 1 0 0 0-1 0-2zm103-1c-1-1-4-1-3 0 0 0 1 1 2 1 1 0 1 0 1-1zm4 0c0 0-1-1-2-2-2-1-2-1 0 0 1 2 2 2 2 1zm78-1c0-1 0-1-1-1-1 0-1 1-1 1 1 1 1 1 2-1zm-171-1c0-1 0-2 1-2 1-1 1 0 0 1-1 1-1 1 1 0 1-1 1-2 0-2-1-1-4 1-3 4 0 1 1 2 1 2 0 0 0-1 0-1zm118 0c1-2 1-2 0 0-2 1-2 2-1 2 0 0 1-1 2-2zm-20-3c0 0-1 0-1 1-1 1 0 2 1 1 1-1 1-1 1-2zm-90 1c0-1-3-3-4-2 0 1 0 1 0 1 1 0 1 0 2 0 1 1 2 1 2 1zm80-3c-1-1-3-2-3-2-1 0 0 2 1 3 1 1 3 2 3 2 1 0 0-2-1-3zm-2 0-2-2 2 2c2 2 3 3 2 3 0 0-1-1-2-2zm86 3c0 0-1-1-1-1-1 0-1 0-1 0 0 1 1 1 2 1 1 0 2 0 2 0zm-64-4c0-1-1-2-2-2-1 0-1-1-2-2-1-2-1-2-1 0 0 1 1 3 2 4 3 2 3 3 2 0zm84 0c0-1 0-1-1 0-2 1-2 1-1 1 1 0 1 0 2-1zm-207-2c0-1-1-1-1 1 0 1 0 2 1 1 0 0 0-1 0-2zm172-1c1-2 1-2 0 0-2 1-2 2-1 2 0 0 1-1 2-2zm39 1c0-1 0-1 0-1-1 0-1 0-1 1 0 1 0 1 0 1 0 0 1 0 1-1zm15-1c-1 0-2 0-3 0-1 0 0 0 1 0 2 0 2 0 2 0zm-231-3c0-1-1-1-1 1 0 1 0 2 1 1 0 0 0-1 0-2zm236 2c0 0-1 0-2 0-1 0-1 1 1 1 1 0 2 0 1-1zm-242-4c0-1 0 0 0 1 0 2 0 2 0 2 0-1 0-2 0-3zm42-6c0-2 0-1 0 3 0 4 0 6 0 4 0-2 0-5 0-7zm77 8c0-1-1-1-1 1 0 1 0 2 1 1 0 0 0-1 0-2zm69 2c0 0-1-1-2-1-1 0-2 0-1 0 1 1 3 1 3 1zm30-5c3 1 4 1 4-1 0-2 1-2 3-2 2 0 3 0 3 0 0-2 0-3 3-2 9 1 10 1 5-1-6-2-8-2-8-1 0 2-5 2-7 0-1-2-6-4-6-2 1 3-2 4-5 1-2-2-3-2-3 0 0 1 1 2 2 3 1 0 2 1 1 2-1 2 0 4 2 2 1-1 2-1 5-1zm-212-2c0-1-1-1-1 1 0 1 0 2 1 1 0 0 0-1 0-2zm121 2c0 0-1-1-2-2-2-1-2-1 0 0 1 2 2 2 2 1zm54 0c1-1 1-1-1-1-1 0-2 0-3 1-1 2 1 2 4 0zm21 0c0 0-1 0-2 0-1 0-1 1 1 1 1 0 2 0 1-1zm-4-1c0 0-1 0-2 0-1 0-1 1 1 1 1 0 2 0 1-1zm6-1c0 0-1 0-2 0-1 0-1 1 1 1 1 0 2 0 1-1zm-202-4c0-1-1 0-1 1 0 1 0 2 1 1 0-1 0-2 0-2zm244 3c0 0-1 0-2 0-1 0-1 1 1 1 1 0 2 0 1-1zm-74-2c0-1-1-1-2-1-1 0-1 0 0 1 2 1 2 1 2 0zm10 0c-1-1-1-2 0-2 0 0 0-1-1-1-1 0-2 0-3-1-1 0 0 1 2 2 4 3 5 3 3 1zm16 0c-4-2-10-3-10-1 0 1 1 1 1 1 1 0 3 0 5 1 5 2 8 2 4 0zm-89 0c0 0-1-2-3-3l-3-3 3 3c3 3 4 4 4 3zm148 0c-1 0-2 0-2 0-1 0 0 1 1 1 1 0 2 0 1-1zm-140-1c0 0-1-1-2-1-1 0-1 0-1 0 1 1 2 1 2 1zm29-1c0-1 1-2 2-2 1 0 3 0 3-1 0-1 1-1 2-1 1 0 2-1 2-2 1-1 1-2 0-2-1 0-1-1-1-1 0-1 1-2 2-2 6 0 7-1 3-3-4-2-6-2-6-1 1 4-4 4-10 1-4-2-9-3-5-1 1 1 4 2 7 3 6 2 7 4 2 4-2 0-5-1-7-2-2-1-4-1-3-1 0 0 2 2 5 3 4 2 4 2 4 4 0 1 0 3 0 3 1 1 1 1 1-1zm107 1c-1-1-9-3-8-2 0 1 2 2 7 2 1 0 1 0 1 0zm-194-3c-1-1-1-2-1-4 0-2 0-2-1-1-1 3 1 7 2 6 1 0 1-1 0-2zm63-1c-2-2-4-2-3 1 0 1 2 2 3 2l2 0-2-2zm-100-2c1-2 1-2 0-1-1 1-2 2-2 3 0 1 0 1 2-2zm149 1c-1-1-2-2-2-3-1 0-1 0-1 0 0 0 1 2 1 3 0 1 1 2 2 2 1 0 1-1 0-2zm28 1c-1-1-4-2-5-2-1 0-1 0 2 1 4 2 7 3 4 1zm15 1c0-1-7-4-10-5-1 0 0 1 4 2 7 3 7 3 7 3zm11 0c0 0-1-1-2-2-2-1-2-1-1 0 1 1 2 2 2 2 1 0 1 0 1 0zm-172-3c0-1-1-1-1 1 0 1 0 2 1 1 0 0 0-1 0-2zm203 2c0 0-1 0-2 0-1 0-1 1 1 1 1 0 2 0 1-1zm-252-3c0-1-1-1-1 1 0 1 0 2 1 1 0 0 0-1 0-2zm107 2c0 0-1-1-2-2-2-1-2-1 0 0 1 2 2 2 2 1zm21-1c0 0-1-1-2-1-1 0-1 0-1 1 0 0 1 1 2 1 1 0 1 0 1-1zm-4-3c1-1 1-1 0-2-1-1-2-1-2 1-1 2 0 2 2 1zm87 0c0-1-9-7-12-7-2 0-1 1 4 3 8 4 7 4 7 3zm-32-2c-1-1-3-1-3-1-1 0 0 1 1 1 4 2 4 2 2 0zm47 1c0 0-1-1-2-2-2-1-2-1 0 0 1 2 2 2 2 1zm-124-1c0 0-1-1-3-3l-3-2 2 3c2 3 3 3 3 2zm140-2c0-1 0-2-1-2 0 0 0 2 0 3 0 1 1 0 1-1zm-51-1c0-1 0-1 0-1-1 0-1 0-1 1 0 1 0 1 0 1 0 0 1 0 1-1zm-177-2c1-1 1-2 1-2 0 0-1 1-2 2-1 1-1 2-1 2 0 0 1-1 2-2zm115 2c0 0-1-1-2-2l-2-2 2 2c2 2 3 3 3 2zm91-2c-1-1-3-2-3-2 0 0 4 4 5 4 0 0-1-1-2-2zm20 1c0-1-1-1-2-1-1 0-1 1 0 1 2 1 2 1 2-1zm6 0c-2-2 0-4 3-3 1 1 2 1 2 1 0-1-6-4-7-4-1 0 0 6 1 7 2 1 2 1 1 0zm-238-1c0-1 0-2 0-2-1-1-1 0-2 1-1 2 1 3 2 1zm10 0c0 0 0-1-1-1-1 0-1 0-1 1 0 0 1 1 1 1 0 0 1 0 1-1zm167 0c0-1 0-1 0-1 0 0-1 0-1 1 0 1 0 1 0 1 1 0 1 0 1-1zm11-1c-1 0-2 0-3 0-1 0 0 0 1 0 2 0 2 0 2 0zm-50-3c-2-1-3-2-3-3 0-1 0-1-1 0-1 2 0 3 2 3 4 1 5 1 2-1zm86 1c0 0-1-1-2-1-1 0-1 0-1 0 1 1 2 1 2 1zm-47-2c-1 0-2 0-3 0-1 0 0 0 1 0 2 0 2 0 2 0zm16-2c0 0-6-1-11-2-7-1-10-2-11-3 0-1-1-1-2-1-1 0-1 0 0 1 1 1 1 2 1 3 0 2 8 3 11 2 2-1 6 0 10 2 2 1 3 0 2-2zm-264-3c-1-1-1 0 0 2 0 3 1 3 1 1 0-1 0-3-1-3zm170 4c0-1-5-5-6-4-1 1 3 5 4 5 1 0 1 0 1-1zm-122-8 0-7 0 6c0 4-1 6-1 6-1 0-1 0 0 0 2 3 3 1 2-6zm190 6c0 0-1 0-2 0-1 0-1 1 1 1 1 0 2 0 1-1zm-66-1c0 0-1-1-2-2l-2-2 2 2c2 2 3 3 3 2zm62 0c0 0-1 0-2 0-1 0-1 1 1 1 1 0 2 0 1-1zm-5-1c-1 0-2 0-3 0-1 0 0 0 1 0 2 0 2 0 2 0zm-186-3c0-1-1-1-1 1 0 1 0 2 1 1 0 0 0-1 0-2zm8-2c0-1-1-1-1 1 0 1 0 2 1 1 0 0 0-1 0-2zm121 1c0 0-1-1-2-2-2-1-2-1 0 0 1 2 2 2 2 1zm65 0c0 0-1 0-2 0-1 0-1 1 1 1 1 0 2 0 1-1zm13 0c0 0-1-1-2-1-1 0-1 0-1 0 1 1 2 1 2 1zm-205-5c0-1 0 0-1 1-1 1-1 2-1 3 0 1 0 0 1 0 1-1 1-2 1-2zm172 1c-2 0-4 0-5 0-2 0 0 0 3 0 3 0 4 0 3 0zm33 0c0-1-1-1-2-1-1 0-2 0-2 1 0 1 1 1 3 1 1 0 3 0 3-1zm15 0c0 0-1 0-2 0-1 0-1 1 1 1 1 0 2 0 1-1zm0-2c0 0-1 0-2 0-1 0-1 1 1 1 1 0 2 0 1-1zm-87-1c0 0-1-1-2-2-2-1-2-1 0 0 1 2 2 2 2 1zm5-1c0-1-1-1-1-1-1 0-3-1-5-3-3-3-3-3-2 0 1 2 6 6 8 6 0 0 0-1 0-1zm-128 0c2-1 2-1 0-2-1-1-2-2-4-1-1 1-2 1-1 1 1 0 1 1 1 2 0 2 1 2 4 1zm84-1c0 0-1-1-2-2l-2-2 2 2c2 2 3 3 3 2zm51-1c0-1-2-1-3-1-2 0-2 0 0 1 3 1 4 1 3 0zm-49-2c0 0-1-1-3-3l-3-2 2 3c2 3 3 3 3 2zm-94-3c-1-1-1-2-2-2-1 1 1 4 2 4 0 0 0-1 0-2zm38-1c0-1-1-1-1 1 0 1 0 2 1 1 0 0 0-1 0-2zm3-1c0-1-1-1-1 1 0 1 0 2 1 1 0 0 0-1 0-2zm-35 0c0-1-1-1-2-1-1 0-1 0 0 1 3 1 3 1 2 0zm-16-1c0-1-1-1-2-2-2-1-2-1-1 1 1 2 3 3 3 1zm24-3c0 0 0 0 0-1-1-2-1-2-2 0-2 2-2 5 0 2 1-1 2-1 2-1zm-83-2c0-1-1-1-1 1 0 1 0 2 1 1 0 0 0-1 0-2zm223 1c0-1 0-1-1-1-1 0-1 0-1 1 0 1 1 1 1 1 0 0 1 0 1-1zm-110-3c0-1 1-1 2-1 1 0 2-1 2-2 0-1 1-2 2-2 1 0 2 0 2-1 0-1 0-1-1-1 0 0-2 1-4 2-2 1-3 1-4 0-2-1-3-6-1-6 1 0 1-1 1-2 0-2 0-2 3-3 4-1 4-4 0-4-2 0-3 0-2 1 1 1 0 4-2 4-1 0-2 3-2 7 0 1-1 3-2 4-3 2-2 3 1 2 2 0 3 0 4 2 1 2 3 3 3 1zm122 0c-1 0-2 0-3 0-1 0 0 0 1 0 2 0 2 0 2 0zm-179-2c0-1-1-1-2-1-1 0-1 1 0 2 1 2 3 1 2 0zm-67-4c0-1 0 0 0 2 0 2 0 3 0 2 0-1 0-3 0-4zm107 3c0 0-1-1-1 0 0 0-1 0-2-1-1-1-1-1 0 0 1 2 5 2 4 1zm-6 0c0 0-1-1-2-2-2-1-2-1 0 0 1 2 2 2 2 1zm-20-2c0 0-1-2-3-3l-3-3 3 3c3 3 4 4 4 3zm26-1c0 0-1-1-2-2l-2-2 2 2c2 2 3 3 3 2zm-72-1c0 0-1-1-2-2-2-2-2-2-1 0 1 2 3 3 3 2zm10 0c0 0-3-2-6-4-5-4-6-4-2-1 2 2 4 4 6 4 2 1 3 1 3 1zm44 0c0 0-1-1-2-2-2-1-2-1-1 0 1 2 3 2 3 1zm24-2c0-1-1-1-1 1 0 1 0 2 1 1 0 0 0-1 0-2zm118 0c0 0-1 0-3 0-2 0-3-1-3-1 0-1-1-1-3 0l-3 1 3 0c1 0 3 1 3 1 1 1 5 0 6-1zm-47 0c0 0-1-1-2-2-2-1-2-1 0 0 1 2 2 2 2 1zm-175-4c-1-2-3-3-4-3-1 0-2-1-2-2 0-1-1-2-1-2-4 0 4 9 9 10 0 0-1-1-2-3zm12 2c2 1 3 1 3 0 0 0 1-1 2-1 2 0 2-1-2-2-4-2-5-2-5-1 0 1-1 1-2 1-2 0-2-3 0-3 1 0 0-1-1-1-2 0-3 0-2 2 0 3 3 7 3 6 1-1 2-1 4 0zm27-1c0-1-1-3-2-4-1-1-2-2-2-3 0-2 3-2 5 0 2 2 2 2 1-1-1-2-1-2 0-3 1 0 2-3 2-5 0-2 1-4 1-4 0 0 1-1 0-2 0-1 0-2 1-3 2-1 1-4-2-5-3 0-3-4 0-4 2 0 2 0 2-1 0-1-1-1-2-1-2 1-4-2-2-4 1-1 1-2 0-3-1-1-1-2-1-2 0 0 0-1-1-1-3-3-4 1-2 6 2 4 2 4-1 7l-3 2 3 1c2 0 3 2 5 5l2 4-3 4c-1 2-3 4-3 5 0 2-3 3-6 3-4 0-3 1 2 4 2 1 5 3 6 4 2 2 2 2 1 0zm48-1 3 0-4-1c-5-1-8 0-5 2 1 1 2 1 2 0 0-1 2-1 4-1zm-20-1c0 0-1-1-2-2-2-1-2-1 0 0 1 2 2 2 2 1zm160-1c0 0-1 0-2 0-1 0-1 1 1 1 1 0 2 0 1-1zM235 502c0-1 1-2 2-2 1 0 2-1 3-2 1-1 2-1 5 1 5 2 7 2 3 0-2-1-4-2-6-2-2-1-3-1-3 0 0 2-2 2-7 0l-5-3 3 2c2 2 3 3 2 4 0 1 0 2 1 3 1 0 1 1 1 1 0 0 0-1 0-2zm32 0c0-1 0-1-1-1-1 0-2 1-2 2 0 1 2 0 3-1zm63 0c0-1 0-2-1-2 0 0 0 2 0 3 0 1 1 0 1-1zM163 500c0-1-3-1-3 0 0 2 0 2 1 1 1-1 2-1 2-1zm66 1c-1-1-1-1-2-1-1 1 1 3 2 3 1 0 1-1 0-2zm106 0c-1-1-1-1 0-2 1 0 1-1 0-1-1 0-2 0-1 1 0 2 2 4 2 4 0 0 0-1-1-1zm-17-2c0-1-1-1-1-1 0 0 0 1 0 2 1 2 2 1 1 0zm-138-1c1-1 1-1-1-1-1 0-2 1-2 2 0 1 0 2 1 2 0 0 1-1 2-1zm208-1c0 0-1-1-2 0-1 0-2 1-2 1 0 0 1 1 2 0 1 0 2-1 2-1zm-164 0c0-1-1-1-2-1-1 0-1 0 0 1 2 2 2 2 2 0zm179 1c0 0-1 0-2 0-1 0-1 1 1 1 1 0 2 0 1-1zm-235-1c1-1-2-3-3-3-1 0-1 1 0 2 1 2 3 2 3 1zm90-3c-1-1-1-1-1 0 0 2-6 2-6 0 0-1-1-1-1 0 0 2 1 2 5 3 3 1 5-1 3-3zm75 1c0-1-1-1-2-1-1 1-1 0 0-3 1-2 1-2-1-2-2 0-2 0-1 3 1 2 2 3 2 2 1 0 1 0 1 1 0 1 0 1 1 1 0 0 0-1 0-2zm-41 0c0 0-1-1-2-2l-2-2 2 2c2 2 3 3 3 2zm50-1c0-1 0-2 0-3-1-2-1-2-1 0 0 1-1 2-2 2-1 0-2 1-2 1 0 1 5 1 5 0zm-168-1c0-1 0-1-1-2-1 0-1 0-1 0 0 1 0 1-1 2-1 0-1 1 0 1 1 0 1 0 2-1zm66-1c1 0 2-1 2-4 0-4 0-4-2-4-1 0-2 0-2-1 0-1 1-2 2-2 2-1 2-1 0-2-1-1-2-2-1-3 0-1 0-2-2-2-2-1-4-4-1-4 2 0 1-4-1-6-1-2-3-3-4-2-1 0-1 1 0 1 3 0 2 3-1 4-2 1-2 1-2 3 1 3-5 5-8 2-2-2-4-3-4-1 0 1-1 2-2 2-3 0-3 3-1 5 1 1 1 2 0 6-1 4 0 7 1 2 0-1 1-2 2-1 1 1 1 0 0-1-2-2 0-4 3-4 2 0 2 0 2-1 0-1 1-2 3-3 4-2 8-1 7 2 0 1 0 2 1 3 1 0 2 1 2 2 0 2-6 3-7 0 0-1-1-1-2-1-1 0-1 0 0 1 1 1 1 2 1 4-1 2-1 2 1 0 2-3 12 0 10 3 0 1 0 1 1 1 2 0 2 3 0 3-1 0-2 0-2-1 0-1-1-2-2-3-1 0-1 0 0 1 1 1 1 2-1 2-1 0-1 1 1 2 2 1 3 1 3 1 0-1 1-1 2-1zm-26-18c-1-1-1-3 2-4 3-1 5 0 5 2 0 2-6 3-7 2zm18-8c0-2 2-3 3-1 0 1 1 2 0 2-1 1-3 1-3-1zm139 25c4-2 5-3 4-3-2 0-8 2-10 4-1 1 0 1 6-1zm-94-1c0 0-1 0-1 1-1 1 0 2 1 1 1-1 1-1 1-2zm-107 1c0-1 0-1-1 0-2 1-2 1-1 1 1 0 1 0 2-1zm56-1c-1-2-5-3-7-2-1 1 0 1 2 1 2 0 3 0 4 1 1 2 2 1 1-1zm30 1c0-2-3-4-4-3-3 2-2 3 1 3 2 0 3 0 3 0zm-85-4c-1 0-3 0-4 0-1 1-1 1 1 0l3-1-2 2-2 2 4-2c3-2 4-2 2-3zm25 3c2-2 1-4-3-3-3 1-3 0-2 3 1 2 3 2 5 1zm70-1c0-1 0-1-1-1-1 0-1 1 0 2 0 1 1 2 1 2 0 0 0-1 0-1zm-90-1c0 0-1 0-2 1-1 1-1 1 1 1 1 0 2-1 1-1zm54 0c0-1 0-1 1-1 1 0 1 0 0-1-1 0-2 0-2 1 0 1 0 2 1 2 1 0 1 0 0-1zm94-1c-1-1-1-1 0-1 1 0 1 0 1-1-1-1-3 1-2 2 1 1 1 1 2 1 0 0 0-1-1-2zm31 1c0-1 0-1-1-1 0 0-1 1 0 1 1 1 1 1 1-1zm10 0c1-2 1-2 0 0-1 1-2 2-2 2 0 1 1 0 2-1zm18 1c0-1-3-5-4-4 0 0 0 1 1 3 2 2 2 2 2 1zm-205-1c-1 0-3-1-4-1-3-1-3-1 1 1 5 2 5 2 4 1zm82-2c0-1 0-1 0-1 0 0-1 1-1 2 0 1 0 2 0 2 1 0 1-1 1-1zm80 1c0 0 0-1 0-2 1-1 1-1 0-1-1 0-2-1-3-3-1-2-2-3-2-2 0 1 4 10 5 10 0 0 0 0 0-1zm-165-3c0 0-1 0-2 0-1 0-1 1 1 1 1 0 2 0 1-1zm-6-1c0 0-1 0-2 0-1 0-1 1 1 1 1 0 2 0 1-1zm96 0c0-1 0-1 0-1 0 0-1 0-1 1 0 1 0 1 0 1 1 0 1 0 1-1zm-92-1c0 0-1 0-2 0-1 0-1 1 1 1 1 0 2 0 1-1zm157-2c0-2-1-2-1-1 0 1-1 1-2 1-1 0-1 0 0 1 3 2 4 1 3-1zm42 1c3 0 7-1 4-1-1 0-1-1-1-2 0-2 0-2-1-1-3 2-5-1-2-3 2-2 1-2-2 0-2 1-5 3-6 3-3 0-13 3-13 4 0 0 3 0 7 0 3 0 6 0 6 1 0 1 1 1 2 0 1 0 4-1 6-1zM186 479c0-1-1-1-2-1-2 0-6-6-5-8 0-2 0-2-1 0-1 1-3 2-4 3-2 1-2 1 0 1 1 0 2 1 2 2 0 1 2 2 4 3 2 1 4 2 5 2 0 0 0 0 0-1zm-33-2c0 0-1 0-2 0-1 0-1 1 1 1 1 0 2 0 1-1zm175 0c0-1-1-1-2-1-1 0-1 0 0 1 2 1 2 1 2 0zm-72-2c-1-1-3-1-4 0 0 0 1 1 2 1 1 0 2 0 2-1zm-64-2c0 0-1-1-4-1-3 0-4 0-3 1 1 1 6 1 7 0zm136 1c0-1-1-2-4-2-4 0-5-3-1-4 2 0 2 0-1-3-2-2-4-4-4-6-1-2-2-3-3-4-1 0-2-1-2-3 0-2-3-5-5-4-1 0-1 1 0 1 2 1 2 1 0 1-1 0-2-1-2-1 0-1 1-1 2-1 1 0 2-1 2-1 0-1-1-2-1-2-1 0-1-1-1-3 0-1-1-3-3-4-2-1-4-3-5-4-2-2-2-2-4-1-1 1-3 2-4 3-2 1-2 1-1 1 1 0 2 1 2 2 0 1 0 1 2 0 1-1 3-2 4-2 4 0 2 3-5 7-4 2-6 4-6 5 0 0 2 0 3-1 3-2 12-6 13-6 3 0 0 4-3 6-4 2-4 2-1 2 3 0 3 0 3 1 0 1-1 3-3 4-2 1-3 2-1 2 2 0 2 2 1 4-2 2-1 2 4-1 3-1 3-2 2-2-4-2-1-5 4-5 3 0 5 5 4 11 0 1 1 1 2 1 4-1 7 6 3 9-1 0 0 1 3 1 2 0 4 0 5 1 1 1 3 1 3 0zm-159-2c1-1 2-2 2-2 0-1 1-1 2-1 2 0 3-1 3-5 0-2 0-3-2-3-2 0-2 0-2-2 0-2 0-2-2-2-3 0-4-2-2-5 2-4-1-1-4 4-3 5-3 5-1 6 1 0 3 1 3 1 1 1 1 1 1-1 0-1 0-2 1-2 1 0 2 0 2 1 0 0 1 1 3 0 4-1 3 4-1 7-5 4-6 6-1 4zm222-1c1-1 2-2 2-2 0 0-2 1-3 3-1 1-2 3-2 3 0 0 2-1 3-2zm-124-4c-1-7-3-8-3-2 0 4 2 7 4 8 0 0 0-3-1-6zm70 5c0-1-6-4-7-3 0 0 4 3 6 4 0 0 0 0 0-1zm78-12c0-3 0-3-4 2-9 10-9 11-2 6 5-4 7-6 7-8zm-206 9c2-2 2-2 0-1-1 1-2 2-2 2 0 1 1 1 3-1zm-47-3c-1-2-2-2-2 0 0 1-1 1-2 0-2-1-2 0 0 1 1 1 1 2 1 2 0 1 0 0 1 0 1-1 2-2 1-3zm243 0c3-3 3-4 2-5-1 0-1 0-1 0 0 0-1 3-3 5-2 2-3 4-3 4 0 0 2-2 4-4zm-17 0c0-1-1-1-3-1-3 0-3 0-2 2 2 2 5 2 5 0zm-195-1c0-1 0-1-1-1-1 0-1 1-1 2 0 1 0 1 1 1 1 0 1-1 1-2zm59 0c0-1 1-2 3-2 1 0 2 0 1-1-2-1-2-5 0-5 1 0 1 0 1-1 0-1-2-1-3-1-2 0-4-1-5-2-3-3-5-3-5 1 0 1 0 3 1 3 1 0 1 1 1 2 0 3 4 9 5 9 0 0 1-1 1-2zm47 1c0 0-1 0-2 0-1 0-1 1 1 1 1 0 2 0 1-1zm-116-2c1-2 1-2 0 0-1 1-2 2-2 2 0 1 1 0 2-1zm145-1c0-1-1-1-2-1-1 0-1 0 0 1 0 1 1 1 2 1 1 0 1 0 0-1zm-170-2c0 0-1 0-2 1-1 1-1 1 1 1 1 0 2-1 1-1zm71-1c-2-1-1-3 0-4 1 0 2-1 2-2 0-1-1 0-2 0-3 2-4 0-2-3l2-2-2 2c-2 2-4 1-3-2 1-2 0-2-3 0-1 1-2 1-3 1-2-2-7-2-11-1-5 1-7 0-5-3 1-1 1-2 1-3-1-2-4-3-6-1-1 1-1 1 0 1 1 0 1 1 1 4-1 4-1 4 1 4 2 0 2 0 2 2 0 2 0 2 2 1 1-1 3-1 4-1 1 0 3 0 4-1 4-3 8-2 5 2-1 1-1 1 0 0 2-2 5-1 5 1 0 1 0 2 1 1 2-1 3 1 2 3-1 1-1 1 2 2 3 0 5-1 3-2zm191-2 3-3-3 3c-3 3-4 4-3 4 0 0 2-1 3-3zm-21 0c0-1 0-1 0-1-1 0-1 0-1 1 0 1 0 1 0 1 0 0 1 0 1-1zm26-2c1-1 2-2 1-2 0 0-1 1-2 2-1 1-2 2-1 2 0 0 1-1 2-2zm-103-3c-2-2-3-2-1 1 1 1 2 2 2 1 0-1 0-2-1-2zm-136-1c2-2 2-3 1-3-1 0-3 1-4 3-1 2-2 3-1 3 0 0 2-1 4-3zm229 0c1-2 1-2 0 0-1 1-2 2-2 2 0 1 1 0 2-1zm14-3c3-3 5-5 4-5 0 0-3 2-5 5-3 3-5 5-4 5 0 0 3-2 5-5zm-190 2c0-1 0-1-1-1-1 0-1 1 0 2 0 1 1 2 1 2 0 0 0-1 0-1zm172 0c0-1 0-2-1-3-2-2-3 0-2 2 1 2 2 2 3 1zM192 449c0-1 0-1-1-1-1 0-1 0-1 1 0 1 0 1 1 1 1 0 1 0 1-1zm241-1c1-2 1-2 0 0-2 1-2 2-1 2 0 0 1-1 2-2zm-8-1c1-2 1-2 0 0-1 1-2 2-2 2 0 1 1 0 2-1zm17 0c1-1 1-2 0-2-1 0-1 0-1 0 0 0 0 1 0 2-1 1-1 1-1 1 0 0 1-1 2-1zM223 446c0-1-1-1-2-1-1 0-1 1 0 1 2 1 2 1 2-1zm196 1c-1 0-2 0-3 0-1 0 0 0 1 0 2 0 2 0 2 0zM220 443c0-1 0-1 0-1 0 0-1 0-1 1 0 1 0 1 0 1 1 0 1 0 1-1zm66-1c1-2 1-2 0 0-2 1-2 2-1 2 0 0 1-1 2-2zm-73 0c0-1 1-1 2-1 5-1 3-3-2-4-5 0-6 0-4 4 1 2 4 2 4 1zm237-5c0 0-2 1-4 3l-3 3 4-3c2-2 3-3 3-3zm-137 4c0-1 0-1-1-1-1 0-1 0 0 1 0 1 1 1 1 1 0 0 0 0 0-1zm110-3 2-3-3 3c-2 1-3 3-3 3 0 0 0 0 1 0 1 0 2-1 3-3zm-161 0c1-2 1-2 0 0-2 1-2 2-1 2 0 0 1-1 2-2zm153-4c0 0-1-1-1 0-1 0-1 1 0 1 0 0 0 1-1 2-1 1-2 2-2 2 0 1 1 0 3-2 2-1 3-3 2-4zm-213 1c0-1 0-2 1-2 1 0 3-1 5-3 3-3 5-3 5 0 0 1 1 1 3 1 3 0 5-6 2-6-1 0-1-1-1-3 0-2 0-3-1-3-1 0-1-1-1-2 0-8-16 7-17 17-1 3 0 4 2 4 2 0 3 0 2-2zm10-10c0-2 1-3 2-3 2 0 2 1 2 2 0 3-4 4-4 0zm24 8c1 0 2 0 2-1 0 0 2-1 4-2 2 0 5-1 6-2 1-1 3-1 5-1 3 0 3 0 2-1-2-2 0-5 3-6 2-1 3-2 3-2 0-1 1-2 2-3 2-1 1-1-1-1-2 0-5 0-8-1-5 0-6 0-7 2-1 1-2 2-3 2-1 0-1 1-1 2 0 1-1 2-1 3-1 0-1 1-1 2 0 4 0 5-3 6-2 0-3 0-4 0-1-1-3 0-3 2 0 3 2 5 3 3 0-1 2-1 3-1zm19 3c0-1-3-3-4-2 0 1 0 1 0 1 1 0 1 0 2 0 1 1 2 1 2 1zm17-2 2-2-3 2c-3 2-3 3-2 3 0 0 2-1 3-2zm196 0c0-1 0-1 0-1 0 0-1 0-1 1 0 2 0 2 1 1zm-275-1c1-1 1-1 0-1-2 0-2 0-1-3 2-3-1-1-3 2l-2 3 2 0c1 0 3 0 4-1zm84-1c1-2 1-2 0 0-2 1-2 2-1 2 0 0 1-1 2-2zm16-2c0 0 0 0-1 0-1 0-3 1-4 2l-2 2 4-2c2-1 4-2 4-2zm180 1c0-1 1-2 3-3 2-2 3-2 1-1-1 0-2 1-2 1 0 0-1 1-1 0-1 0-1 0-1 2 0 2 0 3 1 2 0 0 1-1 1-2zm-210-1c0 0-1 0-3-1-2 0-2 0-1 1 1 1 4 1 4 0zm42-1c0-1-1-1-1-1-1 0-1 0-1 1 0 1 1 1 2 1 1 0 2 0 2-1zm123 0c-1-1 1-3 4-3 1 0 2 0 2-1 0-1 1-2 1-2 1-1 0-1-1-1-3 0-9 8-6 8 0 0 0 0 0-1zm2-4c0 0 1-1 1-1 1-1 1-1 1 0 0 1-1 1-1 1-1 0-1 0-1 0zm-149 3c0 0-1-2-2-3-1-2-1-2 0 1 1 3 2 3 2 2zm174-2c0-3-2-2-2 1 0 2 0 2 1 2 1 0 1-1 1-2zm32 3c0 0 0-1-1-1-1 0-1 0-1 0 0 1 0 1 1 1 1 0 1 0 1 0zm-187-2c0-1-1-2-1-3-1-2-3-2-5 0-1 1-1 2 1 2 1 0 2 1 3 2 0 1 1 2 2 2 1 0 1-1 1-1zm-104-4c1-1 2-2 1-2 0 0-1 1-2 2-1 1-2 2-1 2 0 0 1-1 2-2zm294-1c0-1 0-1 0-1-1 0-1 1-1 2 0 1 1 1 1-1zm15-1c0 0-1-1-2-2l-2-2 2 2c2 2 3 3 3 2zm-66-2c1-2 1-2 0 0-2 1-2 2-1 2 0 0 1-1 2-2zM233 421c0 0-1 0-1 0-1 0-1 0-1 1 0 1 1 1 2 0 1 0 2-1 2-1zm56 1c-1 0-2 0-2 0-1 0 0 1 1 1 1 0 2 0 1-1zm160-2c0-1-1 0-2 0-1 1-1 2-1 2 0 1 1 0 2 0 1-1 1-2 1-2zm4 2c0 0 1 0 0 0 0 0 0-2 0-2 2-3 0-1-2 1-1 1-2 2-1 2 1-1 2-1 3 0zm-177-2c2-1 0-3-4-3-4 0-5 4-1 4 2 0 3 0 4-1zm-38-3c1-3-1-2-2 0-1 2-1 2 0 2 1 0 1-1 2-2zm236 0c2-2 2-2 0-1-1 1-3 1-3 1-1 0-1 1 0 1 1 0 2-1 4-1zm24-3c3-3 1-3-5 0-5 2-5 3-3 3 2 0 3 0 3 1 0 1 2 0 5-3zM247 411c-1 0-1-1 0-2 2-2 0-2-2 1-2 2-2 2 1 2 1 0 2 0 1-1zm-26-7c0 0 1 1 1 1 0 1 1 1 1-1 0-1 0-3-1-4-2-4-5-2-7 4l-1 4 3-2c2-1 3-2 4-2zm109 279c-2-1 0-4 2-3 1 0 2 1 2 2 0 2-2 2-4 1zm83-31c0-1 0-2 2-3 1-1 2-2 1-2-2 0-1-3 1-4 1-1 2-1 1-1-3 0-4-5-2-7 2-2 6-2 6 0 0 2 5 4 7 2 5-3 16-4 14-1 0 1 0 1 1 0 4-2 13-2 13 0 0 1-1 2-1 2-2 0-3 1-5 1-1 0-7 2-13 4-6 2-14 5-17 7-6 4-7 4-8 2zm79-25c-1 0-1-1-1-2 0-1 0-1-1-1-1 0-1-1-1-2 0-1 1-2 3-2 2 0 3 1 3 2 0 1 1 1 7 1 7 0 9 1 6 3-2 1-12 2-14 2zm-66-7c0-1 2-3 4-3 3 0 2 3-2 4-2 0-3 0-3-1zm73-14c-1-3-1-3-3-2-3 1-5 0-5-3 0-3 4-9 6-9 1 0 2-1 3-1 1-1 3-2 5-3l4-2 0 11 0 11-4 0c-4 0-4 0-5-3zm7-3c0 0-1-1-2 0-1 0-2 1-2 1 0 0 1 0 2 0 1 0 2 0 2-1zm-11-61c-4-2-6-5-2-5 1 0 0-1-2-2-6-3-6-3-5-5 1-2 0-2-2-3-8-3-3-5 5-2 4 2 6 2 7 1 2-1 2-1 0-1-3 0-12-5-12-6 0-2 1-2 8 0 3 1 7 2 8 2 1 0-1-1-4-2-3-1-7-2-7-3-1-1-3-1-5-2-15-3-17-4-17-6 0-2 1-2 6-1 3 1 4 1 3-1 0-1 1-1 6-1 5 0 6 0 6-1 0-1 1-1 2-1 1 0 2-1 2-1 0-2-17-5-24-4-8 1-11-4-6-8 1-1 2-2 2-2-3 0-1-3 3-5 7-3 11-3 10 0-1 2 0 2 2 2 1 0 3-1 3-1 2 0 1-4-1-4-2-1-3-3 0-3 1 0 3-2 4-3 2-2 2-2 1-1-6 2-8 3-9 2-1 0-1-1-1-3 0-3-1-3-9 0-6 2-9 2-8-1 0-2 0-2-5-1-6 0-7-1-4-4 2-2 2-2 0-1-4 1-4-2 0-5 6-5 9-3 4 2l-2 2 2-1c1 0 3-2 5-3 5-5 13-7 12-3 0 1 2 0 5-1 9-4 14-4 14-2 0 1-1 2-5 4l-5 2 5-1c3 0 5 0 5 0 0 1 1 1 3 1 2 0 3 0 2 1 0 1 0 1 2 1 5-2 8-2 8 0 0 1 1 2 2 1 2 0 2 0 2 4 0 3 0 4-1 4-1 0-1 0 0 1 1 0 1 5 1 13l0 13-3 0-3 0 3 0c3 0 3 1 3 3 0 1 0 2-1 2-1 0-2 0-3 0-2 1-1 1 1 1 2 0 3 1 3 2 0 1-1 1-1 1-1 0-1 0-1 2 0 1 0 2 1 1 1-4 2 0 2 8l0 10-3-1-3-1 3 1c3 1 4 4 2 6-1 0-1 1 0 1 1 0 1 2 1 5l0 5-4 0c-2 0-6-1-8-2zm12-4c0 0-2 0-4 0-4 0-4 0-3 1 2 1 6 0 7-1zm-8-5c0-1-1-1-2-1-1 0-1 0 0 1 2 1 2 1 2 0zm4-1c0 0-1 0-2 0-1 0-1 1 1 1 1 0 2 0 1-1zm1-18c-1 0-3 0-5 0-2 0-1 0 2 0 3 0 4 0 3 0zm-10-1c0 0-1-1-2-1-1 0-1 0-1 0 1 1 2 1 2 1zm6-5c0-1-2-1-3-1l-3 0 3 1c4 1 4 1 4 0zm1-11c0 0-1 0-2 0-1 0-1 1 1 1 1 0 2 0 1-1zm-6-4c-4-2-4-2-1-4 2-1 2-1 0 0-1 1-5 1-7 1-11 0-14 2-4 2 7 0 10 1 12 2 2 1 3 2 4 1 1 0 0-1-2-2zm9 1c0 0-1 0-2 0-1 0-1 1 1 1 1 0 2 0 1-1zm-1-2c-1 0-2 0-2 0-1 0 0 1 1 1 1 0 2 0 1-1zm-3-2c0-1-1-1-2-1-1 0-1 0 0 1 2 1 2 1 2 0zm-17-2c0 0-1 0-2 0-1 0-1 1 1 1 1 0 2 0 1-1zm1-3c2-1 2-1 1-2-1 0-1 0-1 0 0 0 0 1-2 2-1 1-2 1-1 1 1 0 2-1 3-1zm-15-1c2-1 0-1-2 0-1 1-1 1 0 1 1 0 2 0 3-1zm31 0c0-1 0-1-1-1-1 0-2 0-2 1 0 1 0 1 1 1 1 0 1 0 2-1zm-9-2c-1 0-2 0-2 0-1 0 0 1 1 1 1 0 2 0 1-1zm5-9c-1-2-1-2-4-1-4 2-3 2 0 2 2 0 3 0 3 1 0 1 0 1 1 1 0 0 0-1 0-2zm5 0c1-1 1-1 1-1-1 0-2 0-2 1-1 1-1 1 0 1 1 0 2 0 3-1zm-45-10c0 0-1 0-2 0-1 0-1 1 1 1 1 0 2 0 1-1zm10-7c1-2-3 1-4 3-1 2 0 2 2 0 1-1 2-2 3-3zm-294 77c0-7 0-9 3-8 1 0 1 1 0 1-1 0-1 1-1 2 0 1 0 1 1 1 1-1 2 5 2 8-1 5-3 3-4-4zm226-2c-1-3 1-4 7-4 6 0 8 1 5 4-3 2-11 2-12 0zm7-1c-1 0-3 0-3 0-1 0 0 0 2 0 2 0 3 0 2 0zm12 0c1-3 9-3 9 0 0 2-1 2-5 2-4 0-5 0-4-2zm9-7c-3-1-4-3-2-3 1 0 4 0 7 0 3 0 8-1 11-1 5-1 5 0 5 1-1 3-14 6-22 4zM156 520c-1-1-1-4 0-5 1 0 2 0 2 1 1 2 1 3 0 2-1 0-1 0-1 1 0 1-1 1-1 1zm281-1c-4-2-2-3 4-4 3 0 6-1 7-1 1-1 6-1 6 0 0 4-12 7-17 5zm6-2c0 0-1 0-2 0-1 0-1 1 1 1 1 0 2 0 1-1zm-38-7c0-1 1-2 4-2 6-1 8-1 8 1-1 3-12 5-12 1zm38-3c0-2 1-3 9-4 7-1 8 2 1 4-6 2-9 2-9 0zm24-3c-7 0-7-1-7-3 0-2 18-3 22-1 5 3 0 4-15 3zm14-2c0 0-1 0-2 0-1 0-1 1 1 1 1 0 2 0 1-1zm-75 0c0-2 1-3 9-4 6-1 6-1 6 1-1 3-15 6-15 3zm46-6c0-2 1-2 3-2 4 0 4 3 0 4-2 0-3 0-3-2zm-42-20c0-2 12-13 15-13 1 0 3-1 4-2 6-4 8-1 3 4-2 2-2 2-1 1 3-2 6-2 6 0 0 2-9 8-11 8-2 0-2-4 0-5 1 0 1-1 0-2 0-1-3 1-6 4-6 5-9 6-9 3zm10-7c1-2 1-2 0 0-2 1-2 2-1 2 0 0 1-1 2-2zM129 463c-5-6-6-8-3-8 3 0 11 10 10 12-1 2-2 1-7-4zm309-2c-1-1 0-3 3-5 4-3 5-3 5 0 0 2-7 7-8 5zm-289-12c0-12 2-14 3-4 1 8 0 15-2 15-1 0-1-2-1-11zm6 3c0-6 1-8 3-8 2 0 3 4 1 8-2 5-4 5-4 0zm345 3c-2-2-1-3 2-3 2 0 3 0 3 2 0 2-4 3-5 2zm-41-3c-1-2 8-6 9-5 2 1 1 4-2 5-4 2-6 2-7 0zM128 444c-3-4-4-6-1-6 3-1 8 7 6 8-1 1-2 1-4-2zm12 2c-1-1-1-3 1-3 1 0 2 1 2 2 0 2-1 3-2 1zm-5-10c-4-6-4-6-2-7 2-1 7 7 7 9 0 4-3 2-6-2zm13-2c0-1 0-2-1-2-1 0-2-1-2-2 0-1 0-1 1 0 1 0 1 0 1 0 0-1 0-1 1 0 1 0 1 1 1 2 0 1 0 2 0 2 1 1 1 2-1 2-1 0-1-1-1-1zm21-2c0-2 1-4 2-4 2-1 3 0 2 4-1 5-3 5-3 0zm3-3c0-1 0 0-1 1-1 1-1 2-1 3 0 2 2-2 2-3zm-16-2c-1-1-1-3 0-2 1 0 1 0 1-1 0-1 1-1 1 1 0 3-1 3-2 2zm-13-3c0-1 0-1 1 0 0 1 1 1 1 0 1-1 1-1 1 0 0 1-1 2-1 2-1 0-1-1-1-2zm34-1c-2-1-2-7 1-7 2 0 2 1 2 3 0 4-1 5-3 4z"/></g></svg>
